<svg height="64" preserveAspectRatio="none" viewBox="0 0 64 64" width="64" xmlns="http://www.w3.org/2000/svg" xmlns:xlink="http://www.w3.org/1999/xlink"><linearGradient id="a"><stop offset="0" stop-color="#717071"/><stop offset=".5" stop-color="#b2b2b3"/><stop offset="1" stop-color="#717071"/></linearGradient><linearGradient id="b" gradientTransform="matrix(.866 -.5 .5 .866 -14.4201 20.7498)" gradientUnits="userSpaceOnUse" x1="31.855724" x2="41.854" xlink:href="#a" y1="45.975975" y2="45.975975"/><linearGradient id="c"><stop offset="0" stop-color="#717071"/><stop offset=".0353982" stop-color="#717071" stop-opacity="0"/><stop offset=".118616" stop-color="#717071" stop-opacity="0"/><stop offset=".262564" stop-color="#717071"/></linearGradient><linearGradient id="d" gradientTransform="matrix(.866 -.5 .5 .866 -14.4201 20.7498)" gradientUnits="userSpaceOnUse" x1="36.854008" x2="36.854008" xlink:href="#c" y1="67.343628" y2="24.601028"/><linearGradient id="e" gradientTransform="matrix(.866 .5 -.5 .866 22.579901 -11.2502)" gradientUnits="userSpaceOnUse" x1="22.506262" x2="32.50457" xlink:href="#a" y1="45.767948" y2="45.767948"/><linearGradient id="f" gradientTransform="matrix(.866 .5 -.5 .866 22.579901 -11.2502)" gradientUnits="userSpaceOnUse" x1="27.504562" x2="27.504562" xlink:href="#c" y1="67.135658" y2="24.392942"/><linearGradient id="g" gradientUnits="userSpaceOnUse" x1="11.5" x2="52.5" y1="8.014853" y2="8.014853"><stop offset="0" stop-color="#717071"/><stop offset=".4" stop-color="#b2b2b3"/><stop offset=".6" stop-color="#b2b2b3"/><stop offset="1" stop-color="#717071"/></linearGradient><linearGradient id="h"><stop offset="0" stop-color="#d9dada"/><stop offset="1" stop-color="#868686"/></linearGradient><radialGradient id="i" cx="34.13139" cy="3.816186" fy="3.306366" gradientTransform="matrix(.766 .6428 -1.0244625 1.2208126 30.655495 -14.494949)" gradientUnits="userSpaceOnUse" r="2.000063" xlink:href="#h"/><radialGradient id="j" cx="30.295935" cy="4.439665" fy="3.929848" gradientTransform="matrix(.766 -.6428 1.0244625 1.2208126 -16.645554 26.157785)" gradientUnits="userSpaceOnUse" r="2.000051" xlink:href="#h"/><linearGradient id="k"><stop offset="0" stop-color="#f5b32c"/><stop offset=".2702468" stop-color="#f2af29"/><stop offset=".5501981" stop-color="#e8a21e"/><stop offset=".8336913" stop-color="#d88e0d"/><stop offset="1" stop-color="#cc7e00"/></linearGradient><linearGradient id="l" gradientTransform="matrix(.766 .6428 -.6428 .766 29.198999 -12.7593)" gradientUnits="userSpaceOnUse" x1="34.132187" x2="34.132187" xlink:href="#k" y1="36.317253" y2="6.816524"/><linearGradient id="m"><stop offset="0" stop-color="#d98600"/><stop offset=".4" stop-color="#f5b32c"/><stop offset=".6" stop-color="#f5b32c"/><stop offset="1" stop-color="#d98600"/></linearGradient><linearGradient id="n" gradientTransform="matrix(.766 .6428 -.6428 .766 29.198999 -12.7593)" gradientUnits="userSpaceOnUse" x1="24.131468" x2="44.131931" xlink:href="#m" y1="7.816396" y2="7.816396"/><linearGradient id="o" gradientTransform="matrix(.766 -.6428 .6428 .766 -14.9511 28.177)" gradientUnits="userSpaceOnUse" x1="30.295139" x2="30.295139" xlink:href="#k" y1="36.940731" y2="7.439517"/><linearGradient id="p" gradientTransform="matrix(.766 -.6428 .6428 .766 -14.9511 28.177)" gradientUnits="userSpaceOnUse" x1="20.295363" x2="40.295857" xlink:href="#m" y1="8.439879" y2="8.439879"/><radialGradient id="q" cx="32" cy="37" gradientUnits="userSpaceOnUse" r="22.5"><stop offset=".907283" stop-color="#f09400"/><stop offset=".957904" stop-color="#f5b32c"/><stop offset="1" stop-color="#f09400"/></radialGradient><radialGradient id="r" cx="32" cy="37" gradientUnits="userSpaceOnUse" r="19.75"><stop offset=".7" stop-color="#fff"/><stop offset="1" stop-color="#d9dada"/></radialGradient><radialGradient id="s" cx="32" cy="37" gradientUnits="userSpaceOnUse" r="1.6875"><stop offset="0" stop-color="#f5b32c"/><stop offset=".2830367" stop-color="#f4af26"/><stop offset=".6524574" stop-color="#f2a316"/><stop offset="1" stop-color="#f09400"/></radialGradient><path d="m36.8291016 25.8090992 15.0381966 32.8788986c.365303.7986984.0140038 1.7421989-.7846985 2.107502-.7053986.3225975-1.5239983.0854988-1.9571991-.5244026l-20.9549008-29.4629975c-1.6072998-2.2600002-1.0783005-5.3950996 1.1816998-7.0023994 2.2600002-1.6074009 5.3950996-1.0783997 7.0024986 1.1816006.1816025.2553997.3467026.5474987.4744034.8217983z" fill="url(#b)"/><path d="m36.8291016 25.8090992 15.0381966 32.8788986c.365303.7986984.0140038 1.7421989-.7846985 2.107502-.7053986.3225975-1.5239983.0854988-1.9571991-.5244026l-20.9549008-29.4629975c-1.6072998-2.2600002-1.0783005-5.3950996 1.1816998-7.0023994 2.2600002-1.6074009 5.3950996-1.0783997 7.0024986 1.1816006.1816025.2553997.3467026.5474987.4744034.8217983z" fill="url(#d)"/><path d="m35.8292999 30.8080997-20.9548902 29.4629994c-.5089998.7155991-1.50179.8832016-2.217452.3742027-.6321373-.4496002-.8360929-1.2772026-.524435-1.9573021l15.0381775-32.8788986c1.1534996-2.5219994 4.1331997-3.6313992 6.655201-2.4778996s3.6313972 4.1331005 2.4778976 6.655201c-.1303979.284998-.3008004.5739975-.4744989.8216972z" fill="url(#e)"/><path d="m35.8292999 30.8080997-20.9548902 29.4629994c-.5089998.7155991-1.50179.8832016-2.217452.3742027-.6321373-.4496002-.8360929-1.2772026-.524435-1.9573021l15.0381775-32.8788986c1.1534996-2.5219994 4.1331997-3.6313992 6.655201-2.4778996s3.6313972 4.1331005 2.4778976 6.655201c-.1303979.284998-.3008004.5739975-.4744989.8216972z" fill="url(#f)"/><path d="m51.9530983 12.0288086c-.3241997.0004883-.7714996-.472168-2.8671989-3.5620089-1.4510994-2.1401395-4.8163987-3.4667997-17.0858994-3.4667997-12.2700195 0-15.6347694 1.3266602-17.0864296 3.4667997-2.5068321 3.6957979-2.6528282 3.6479464-3.0532188 3.5244112l-.3530273-.1088867-.0073243-.3789062c0-.2089844.128418-.3881836.3105469-.4628906.159668-.1655273.6879883-.7939472 2.2758827-3.1352572 1.6772404-2.4731403 5.1464806-3.9052702 17.9135704-3.9052702 12.767601 0 16.2363014 1.4321299 17.9141006 3.9052701 1.5878983 2.34131 2.1161995 2.9697299 2.2753983 3.1352572.1826019.0747071.3105011.2539063.3105011.4628907 0 .2197266-.1503983.4233398-.3604012.487793-.0653991.0200195-.1240005.0375976-.1865005.0375976z" fill="url(#g)"/><circle cx="52.890598" cy="12.103554" fill="url(#i)" r="2.000008"/><circle cx="11.109401" cy="12.103554" fill="url(#j)" r="2.000001"/><path d="m31.738203 22.8857803c.0896721.0000038.1796532.0023994.2696018.0072212.0848427-.0042419.1695213-.0063515.2543106-.0063515 1.5690041 0 3.1138763.7246132 4.0925789 2.1006508.1816101.2554016.3468094.5475006.4744072.8218002l15.0381927 32.8788986c.3653107.7986031.0140076 1.7422028-.7846909 2.107502-.2141533.0979385-.4387131.1442871-.6597786.1442871-.5071106 0-.9957352-.2439461-1.2974205-.6686859l-17.1255016-24.078804-17.1255093 24.078804c-.310154.4360657-.7998943.6685829-1.2971773.6685829-.3187704 0-.640686-.0955963-.9202328-.294384-.6321402-.4496994-.8361197-1.2771988-.5244799-1.9573021l15.0382004-32.8788986c.8435671-1.8445205 2.6637308-2.9233664 4.5674993-2.9233207m.0000096-.25c-.0000095 0-.0000095 0-.0000095 0-2.0599995-.0000496-3.9420891 1.204731-4.7948494 3.0693398l-15.0382004 32.8789024c-.3670597.8010406-.1118498 1.7536697.6069098 2.2649879.3134203.2228813.6817303.3406715 1.0651503.3406715.5952597 0 1.1563396-.2892303 1.5009098-.7736816l16.9217796-23.7923508 16.9217701 23.7923508c.34412.4844704.9053307.7737923 1.501152.7737923.2645798 0 .5215492-.0561714.7637596-.1669426.44701-.2044487.7876472-.5707283.9591599-1.0313797.1714973-.4606476.1533585-.9604874-.0511093-1.4074707l-15.0381814-32.8788795c-.1410408-.3032074-.3176689-.6090698-.4980202-.8626976-.9823608-1.3811913-2.588459-2.2057724-4.2963219-2.2057724-.0889473 0-.1777687.0022125-.2667885.0066605-.0685558-.0050088-.1629962-.0075303-.2571105-.0075303z" fill="#717071"/><path d="m31.9999981 4c12.7675991 0 16.2362995 1.4321327 17.9140987 3.9052696.9193001 1.3554726 1.4762001 2.1258621 1.8190994 2.5756912.3460617-.2469406.7561607-.3738785 1.1679497-.3738785.4501991 0 .9024124.1517677 1.2749519.4643898.846199.7100182.9566002 1.9715004.2466011 2.8176308-.395607.4714851-.9623146.7144928-1.5331154.7144928-.4536285 0-.9098816-.1535721-1.2845879-.4679756-.7044983-.5911903-.8904991-1.5622597-.5259972-2.3599892-.4149017-.5222092-1.0278015-1.3856812-1.9930992-2.8088303-1.4511031-2.1401404-4.8164023-3.4668006-17.0859011-3.4668006-12.2700195 0-15.6347714 1.3266602-17.0864306 3.4668007-.9649 1.4225388-1.57794 2.2868614-1.9924297 2.8093185.3643198.7976723.1782894 1.7683716-.5261803 2.3595009-.3747263.3144493-.8308449.4679756-1.2845211.4679756-.5707216 0-1.137536-.2430573-1.5331087-.7144928-.7100201-.8461304-.5996103-2.1076126.24652-2.8176308.3726139-.3126526.8247395-.4644089 1.2749863-.464386.4118366.0000191.8221169.1270294 1.1681938.374054.3430796-.4497681.8999596-1.2202072 1.8193998-2.5758705 1.6772405-2.4731369 5.1464806-3.9052696 17.9135705-3.9052696m0-.25c-12.8781109 0-16.3959808 1.4721413-18.1204796 4.0149498-.6923189 1.0207901-1.2541676 1.8204651-1.6732483 2.3816261-.3371964-.1900139-.7155972-.2894783-1.1074219-.2894936-.5239496-.0000229-1.0338202.1856689-1.4356899.5228806-.9503994.7975082-1.07481 2.2194862-.2773399 3.169838.4286203.5108185 1.0572205.8037987 1.7246199.8037987.52738 0 1.0406399-.1869698 1.44522-.5264702.7289495-.6116676.9858408-1.6253662.6523914-2.5117798.4157333-.5361671 1.0130882-1.3823547 1.9124184-2.70821 1.4058399-2.0725975 4.7199096-3.3571396 16.8795299-3.3571396 12.1599102 0 15.4736996 1.2845306 16.8789806 3.3571014.8987312 1.3250122 1.4962158 2.1709785 1.9130478 2.70784-.3335648.8865356-.0767632 1.9004059.6522713 2.512188.4046288.3395004.9179115.5264702 1.4452896.5264702.6674118 0 1.2960205-.2929802 1.7246284-.8038101.3863029-.4603767.5702019-1.0436401.5178032-1.6423378-.0523911-.5987015-.3348122-1.1411705-.7952309-1.5274887-.4018021-.3371811-.9116592-.5228806-1.4356422-.5228806-.3916855 0-.7699852.0993996-1.1071205.2893066-.4200592-.5626869-.9818001-1.3622665-1.673027-2.3814392-1.725071-2.5428276-5.2432099-4.0149498-18.1210003-4.0149498z" fill="#717071"/><path d="m32.7661018 37.642601-1.5322017-1.285202 18.9624004-22.5981188 1.5312004 1.2851496z" fill="url(#l)"/><path d="m40.0878983 11.8040352s5.1423035-6.128355 10.2492027-1.8431053c5.1069984 4.2852497 5.1069984 4.2852497 5.1069984 4.2852497s5.1068993 4.2852497-.0354004 10.41362z" fill="url(#n)"/><path d="m31.2339001 37.642601-18.9624157-22.5981712 1.5322256-1.2851496 18.9623918 22.5981188z" fill="url(#o)"/><path d="m8.59126 24.6597996s-5.1422997-6.1283703-.0353403-10.41362 5.1069603-4.2852497 5.1069603-4.2852497 5.1069698-4.2852497 10.2492199 1.8431053z" fill="url(#p)"/><circle cx="32" cy="37" fill="url(#q)" r="22.5"/><path d="m32 14.5c12.4263992 0 22.5 10.0736008 22.5 22.5s-10.0736008 22.5-22.5 22.5-22.5-10.0736008-22.5-22.5 10.0735893-22.5 22.5-22.5m0-.5c-12.6822395 0-23 10.3178005-23 23s10.3177605 23 23 23c12.6822014 0 23-10.3177986 23-23s-10.3177986-23-23-23z" fill="#e68e00"/><path d="m32 56.75c-10.8901367 0-19.75-8.859375-19.75-19.75 0-10.8901367 8.8598633-19.75 19.75-19.75 10.890625 0 19.75 8.8598633 19.75 19.75 0 10.890625-8.859375 19.75-19.75 19.75z" fill="url(#r)"/><path d="m32 17.5c10.7523384 0 19.5 8.7476616 19.5 19.5s-8.7476616 19.5-19.5 19.5-19.5-8.7476578-19.5-19.5 8.7476597-19.5 19.5-19.5m0-.5c-11.0456905 0-20 8.9542999-20 20s8.9543095 20 20 20 20-8.9542999 20-20-8.9542999-20-20-20z" fill="#ccc"/><g fill="#717071" opacity=".9"><path d="m32.5833015 19.625c0 .9395809-.2625008 1.7083302-.5833015 1.7083302s-.5832996-.7687493-.5832996-1.7083302.2624988-1.7083302.5832996-1.7083302.5833015.7687493.5833015 1.7083302z"/><path d="m23.8176994 21.6611404c.4698009.8136597.6268005 1.6107597.3490009 1.7711601-.2779007.1603985-.8896008-.3740997-1.3593998-1.1878014-.4698009-.8137283-.6268005-1.6107292-.3490009-1.7711487.2779007-.1604212.8896008.3740903 1.3593998 1.18779z"/><path d="m17.2444801 27.8073006c.8136997.469799 1.3482094 1.0814991 1.1877899 1.3593998-.1604195.2777996-.9574203.1208-1.7711296-.3490009-.8137007-.469799-1.3482103-1.0814991-1.1877909-1.3593998.1604205-.2777997.9574214-.1208001 1.7711306.3490009z"/><path d="m14.625 36.4166985c.93958 0 1.7083302.2625008 1.7083302.5833015s-.7687502.5833015-1.7083302.5833015-1.708333-.2625007-1.708333-.5833015.768753-.5833015 1.708333-.5833015z"/><path d="m16.6611404 45.1823006c.8137093-.469799 1.6107101-.6268005 1.7711296-.348999.1604195.2778969-.3740902.8895988-1.1877899 1.3593979-.8137093.469799-1.6107101.6268005-1.7711306.348999-.1604194-.2778969.3740903-.8895989 1.1877909-1.3593979z"/><path d="m22.8073006 51.7555008c.469799-.8137016 1.0814991-1.3482018 1.3593998-1.1878014.2777996.1604004.1208.9575005-.3490009 1.7712021-.469799.8136978-1.0814991 1.3481979-1.3593998 1.1877975-.2777997-.1604995-.1208001-.9575004.3490009-1.7711982z"/><path d="m31.4167004 54.375c0-.9396019.2624989-1.7083015.5832996-1.7083015s.5833015.7686996.5833015 1.7083015-.2625007 1.7083015-.5833015 1.7083015-.5832996-.7686996-.5832996-1.7083015z"/><path d="m40.1823006 52.3389015c-.469799-.8137016-.6268005-1.6108017-.348999-1.7712021.2778969-.1604004.8895988.3740997 1.3593979 1.1878014.469799.8136978.6268005 1.6106987.348999 1.7711983-.2778969.1604004-.8895989-.3740998-1.3593979-1.1877976z"/><path d="m46.7555008 46.1926994c-.8137016-.469799-1.3482018-1.081501-1.1878014-1.3593979.1604004-.2778015.9575005-.1208 1.7712021.348999.8136978.469799 1.3481979 1.081501 1.1877975 1.3593979-.1604995.2778016-.9575004.1208001-1.7711982-.348999z"/><path d="m49.375 37.5833015c-.9396019 0-1.7083015-.2625008-1.7083015-.5833015s.7686996-.5833015 1.7083015-.5833015 1.7083015.2625007 1.7083015.5833015-.7686996.5833015-1.7083015.5833015z"/><path d="m47.3389015 28.8176994c-.8137016.4698009-1.6108017.6268005-1.7712021.3490009-.1604004-.2779007.3740997-.8896008 1.1878014-1.3593998.8136978-.4698009 1.6106987-.6268005 1.7711983-.3490009.1604004.2779007-.3740998.8896008-1.1877976 1.3593998z"/><path d="m41.1926994 22.2444992c-.469799.8137016-1.081501 1.3481998-1.3593979 1.1878014-.2778015-.1604004-.1208-.9575005.348999-1.7711601.469799-.8136997 1.081501-1.3482113 1.3593979-1.1877899.2778016.1604194.1208001.9574203-.348999 1.7711486z"/></g><path d="m32 37.75c-.4140625 0-.75-.3359375-.75-.75v-14.5415039c0-.4140625.3359375-.75.75-.75s.75.3359375.75.75v14.5415039c0 .4140625-.3359375.75-.75.75z" fill="#595757"/><path d="m43.25 38h-11.25c-.5522461 0-1-.4472656-1-1s.4477539-1 1-1h11.25c.5527344 0 1 .4472656 1 1s-.4472656 1-1 1z" fill="#e53828"/><circle cx="32" cy="37" fill="url(#s)" r="1.6875"/><path d="m32 38.8125c-.9995117 0-1.8125-.8134766-1.8125-1.8125s.8129883-1.8125 1.8125-1.8125 1.8125.8134766 1.8125 1.8125-.8129883 1.8125-1.8125 1.8125zm0-3.375c-.8613281 0-1.5625.7011719-1.5625 1.5625s.7011719 1.5625 1.5625 1.5625 1.5625-.7011719 1.5625-1.5625-.7011719-1.5625-1.5625-1.5625z" fill="#d98600"/><path d="m46.4510765 8.4395485c1.2376251.0000687 2.5631714.4113617 3.8860283 1.5213928 5.1069908 4.2852097 5.1069908 4.2852097 5.1069908 4.2852097s5.1068993 4.2852783-.0353012 10.4136505l-6.8947906-5.7854118-.9864082 1.1754799c4.5893096 4.2076301 7.4724082 10.2479286 7.4724082 16.9501304 0 12.6823006-10.3176994 23-23 23-12.6822491 0-23-10.3176994-23-23 0-6.7019997 2.8828697-12.7420998 7.4719191-16.9497719l-.9863195-1.1754684-6.8943491 5.7850418s-5.1422806-6.1283722-.0353403-10.4136505c5.1069899-4.2852097 5.1069899-4.2852097 5.1069899-4.2852097s1.7358589-1.4571686 4.203371-1.4568901c1.7639847.0001984 3.9022331.7452393 6.045929 3.2999687l-6.89468 5.7852707.98736 1.1767006c3.8800706-2.9851112 8.7323216-4.7659912 13.9951199-4.7659912 5.2627907 0 10.1151009 1.78088 13.9950905 4.7659912l.9874001-1.1767006-6.8946991-5.7852707s2.82304-3.364666 6.3632812-3.3644714m.0000267-.5c-3.7305298-.0001984-6.624958 3.3984108-6.7463493 3.5430908l-.3213577.3830185.383007.3213806 6.5116692 5.463871-.3609734.4301796c-4.0612335-2.9987907-8.8625603-4.581089-13.9170952-4.581089-5.0544662 0-9.8558102 1.5822983-13.9171124 4.5810966l-.3609562-.4301758 6.5116596-5.4638824.3830299-.3213882-.3213997-.3830299c-1.9366207-2.3079414-4.0996208-3.4783096-6.4288902-3.478569-2.6199703-.0001106-4.4483805 1.5096893-4.52493 1.5739594l-5.1068802 4.2851181c-5.4271799 4.5539893-.0809296 11.0529517-.0262898 11.1180609l.3213902.3830299.3830194-.3213996 6.5113287-5.4636459.3605042.4296379c-4.6351767 4.4276962-7.2844725 10.5927886-7.2844725 16.991188 0 12.9579391 10.5420599 23.5 23.5 23.5s23.5-10.5420609 23.5-23.5c0-6.3986244-2.6494522-12.563839-7.284935-16.9915466l.3605537-.4296608 6.5117836 5.4640274.3830185.3213997.3213997-.3830299c5.4011002-6.4369316.0285721-11.071991-.026329-11.1180611l-5.1070033-4.2852097c-1.2954788-1.087059-2.7110481-1.6382904-4.2073898-1.6383705z" fill="#bf7600"/></svg>